<?xml version="1.0" encoding="UTF-8" standalone="no"?>
<svg xmlns:rdf="http://www.w3.org/1999/02/22-rdf-syntax-ns#" xmlns="http://www.w3.org/2000/svg" xml:space="preserve" height="16px" width="16px" version="1.1" y="0px" x="0px" xmlns:cc="http://creativecommons.org/ns#" xmlns:dc="http://purl.org/dc/elements/1.1/" viewBox="0 0 71 100"><path d="m8 1c-2.2091 0-4 1.7909-4 4v2h-1v7h10v-7h-1v-2c0-2.2091-1.791-4-4-4zm0 2c1.1046 0 2 0.89543 2 2v2h-4v-2c0-1.1046 0.8954-2 2-2z" transform="matrix(6.25,0,0,6.25,-14.5,0)" fill="#fff"/><path fill="none" d="m3.0644 10.508v-3.4576h0.46554 0.46554l0.049537-1.2034c0.0646-1.5651 0.113-1.8358 0.4513-2.521 0.2114-0.4281 0.404-0.6932 0.7644-1.0519 1.5249-1.518 3.7315-1.5825 5.3624-0.1569 0.3841 0.33571 0.88207 1.0763 1.0542 1.5678 0.1473 0.42069 0.26287 1.6086 0.26644 2.7387l0.002 0.62712h0.50847 0.50848v3.4576 3.4576h-4.9492-4.9492v-3.4576zm7.0016-4.1521c-0.02012-0.3822-0.04774-0.70763-0.0614-0.72316-0.013653-0.015537-0.024824 0.28192-0.024824 0.66102v0.68927h-1.963-1.963l-0.023717-0.45763-0.023717-0.45763-0.013279 0.49153-0.013279 0.49153h2.0614 2.0614l-0.03657-0.69492zm-3.5264-2.644c0.1085-0.1399 0.1801-0.2543 0.1592-0.2543-0.062956 0-0.58354 0.68419-0.58354 0.76694 0 0.042237 0.051116 0.00136 0.11359-0.090834 0.062475-0.092195 0.20233-0.28203 0.31078-0.42186zm3.2103 0.305c-0.0537-0.1025-0.2147-0.2931-0.3577-0.4236l-0.26-0.2372 0.2462 0.2711c0.13542 0.1491 0.28141 0.33974 0.32442 0.42364 0.043009 0.083898 0.093162 0.15254 0.11145 0.15254 0.01829 0-0.010689-0.083898-0.064397-0.18644zm-2.4466-0.8854c-0.0328-0.0328-0.4262 0.1775-0.4727 0.2526-0.0214 0.0347 0.0813-0.0028 0.2283-0.0833s0.257-0.1567 0.2444-0.1693z" transform="matrix(6.25,0,0,6.25,-14.5,0)"/></svg>
