<?xml version="1.0" encoding="UTF-8" standalone="no"?>
<!-- Created with Inkscape (http://www.inkscape.org/) -->

<svg
   xmlns:dc="http://purl.org/dc/elements/1.1/"
   xmlns:cc="http://creativecommons.org/ns#"
   xmlns:rdf="http://www.w3.org/1999/02/22-rdf-syntax-ns#"
   xmlns:svg="http://www.w3.org/2000/svg"
   xmlns="http://www.w3.org/2000/svg"
   xmlns:sodipodi="http://sodipodi.sourceforge.net/DTD/sodipodi-0.dtd"
   xmlns:inkscape="http://www.inkscape.org/namespaces/inkscape"
   width="32"
   height="32"
   id="svg4375"
   version="1.1"
   inkscape:version="0.48.4 r9939"
   sodipodi:docname="mail.svg"
   inkscape:export-filename="calendar.png"
   inkscape:export-xdpi="90"
   inkscape:export-ydpi="90">
  <defs
     id="defs4377" />
  <sodipodi:namedview
     id="base"
     pagecolor="#00002b"
     bordercolor="#666666"
     borderopacity="1.0"
     inkscape:pageopacity="0.49411765"
     inkscape:pageshadow="2"
     inkscape:zoom="32"
     inkscape:cx="10.704992"
     inkscape:cy="15.257789"
     inkscape:document-units="px"
     inkscape:current-layer="layer1"
     showgrid="false"
     fit-margin-top="0"
     fit-margin-left="0"
     fit-margin-right="0"
     fit-margin-bottom="0"
     inkscape:window-width="1920"
     inkscape:window-height="1148"
     inkscape:window-x="1672"
     inkscape:window-y="-8"
     inkscape:window-maximized="1" />
  <metadata
     id="metadata4380">
    <rdf:RDF>
      <cc:Work
         rdf:about="">
        <dc:format>image/svg+xml</dc:format>
        <dc:type
           rdf:resource="http://purl.org/dc/dcmitype/StillImage" />
        <dc:title />
      </cc:Work>
    </rdf:RDF>
  </metadata>
  <g
     inkscape:label="Layer 1"
     inkscape:groupmode="layer"
     id="layer1"
     transform="translate(580.71429,-1.576468)">
    <path
       inkscape:connector-curvature="0"
       style="fill:#000000;fill-opacity:1;stroke:none"
       d="m -569.93304,8.568049 c -3.02268,0.0082 -3.08318,-0.07881 -6,0.01133 -1.72799,0.345314 -3,1.650906 -3,3.109869 l 0,12.484779 c 0,1.729142 1.784,3.121195 4,3.121195 l 20,0 c 2.216,0 4,-1.392053 4,-3.121195 l 0,-12.484779 c 0,-1.458963 -1.27201,-2.764555 -3,-3.109869 -2.90073,0.02143 -2.88431,0.03261 -6,-0.01133 z m -5.96875,3.706419 22.28125,-0.463302 c 0,0 -0.21849,-0.116381 -0.2188,-0.07315 l -0.0937,13.143156 c -3.1e-4,0.04323 -0.0384,0.07315 -0.0937,0.07315 l -21.8125,0 c -0.0554,0 -0.0937,-0.02993 -0.0937,-0.07315 l 0,-12.557932 c 0,-0.04323 -1.1123,-0.02499 0.0312,-0.04877 z"
       id="path3763"
       sodipodi:nodetypes="ccsssssscccscsssssss" />
    <path
       id="path4088"
       d="m -575.93304,9.411527 c -1.72799,0.348732 -3,1.649835 -3,3.12324 l 0,12.608361 c 0,1.746258 1.784,3.15209 4,3.15209 l 20,0 c 2.216,0 4,-1.405832 4,-3.15209 l 0,-12.608361 c 0,-1.473405 -1.27201,-2.826747 -3,-3.175479 0.0457,0.0074 -22,0.05224 -22,0.05224 z m -0.0134,3.190081 21.95089,-0.13368 -0.0272,0.0211 0.0893,13.36824 c 2.9e-4,0.04366 -0.0384,0.07388 -0.0937,0.07388 l -21.8125,0 c -0.0554,0 -0.0938,-0.03022 -0.0937,-0.07388 l 0.0312,-13.216967 c 0,-0.0085 -0.0447,-0.0387 -0.0447,-0.0387 z"
       style="fill:#ffffff;stroke:none"
       inkscape:connector-curvature="0"
       sodipodi:nodetypes="csssssscccccssssccc" />
    <path
       style="fill:none;stroke:#000000;stroke-width:2.87782669;stroke-linecap:round;stroke-linejoin:round;stroke-miterlimit:4;stroke-opacity:1;stroke-dasharray:none"
       d="m -573.58788,14.234131 8.42096,7.653424 8.88872,-7.559041"
       id="path3019-1"
       inkscape:connector-curvature="0"
       sodipodi:nodetypes="ccc" />
    <path
       style="fill:none;stroke:#ffffff;stroke-width:2.87782669;stroke-linecap:round;stroke-linejoin:round;stroke-miterlimit:4;stroke-opacity:1;stroke-dasharray:none"
       d="m -573.58788,15.124756 8.42096,7.622174 8.88872,-7.527791"
       id="path3019-1-2"
       inkscape:connector-curvature="0"
       sodipodi:nodetypes="ccc" />
  </g>
</svg>
