<?xml version="1.0" encoding="utf-8"?>
<!-- Generator: Adobe Illustrator 16.0.0, SVG Export Plug-In . SVG Version: 6.00 Build 0)  -->
<!DOCTYPE svg PUBLIC "-//W3C//DTD SVG 1.1//EN" "http://www.w3.org/Graphics/SVG/1.1/DTD/svg11.dtd">
<svg version="1.1" id="Layer_1" xmlns="http://www.w3.org/2000/svg" xmlns:xlink="http://www.w3.org/1999/xlink" x="0px" y="0px"
	 width="512px" height="512px" viewBox="0 0 512 512" enable-background="new 0 0 512 512" xml:space="preserve">
<g>
	<path fill="#020202" d="M368.883,144.425c-9.492,0-17.188,7.695-17.188,17.188c0,3.414,1.008,6.585,2.724,9.26l-63.526,65.8
		c-2.699-1.763-5.918-2.797-9.384-2.797c-2.572,0-5.002,0.58-7.192,1.593l-23.084-35.743c1.609-2.616,2.554-5.686,2.554-8.982
		c0-9.492-7.694-17.188-17.186-17.188c-9.492,0-17.188,7.695-17.188,17.188c0,3.414,1.008,6.585,2.723,9.26l-63.526,65.801
		c-2.699-1.764-5.918-2.799-9.383-2.799c-9.493,0-17.188,7.696-17.188,17.188s7.695,17.188,17.188,17.188
		c9.492,0,17.187-7.696,17.187-17.188c0-3.525-1.064-6.8-2.885-9.528l63.427-65.697c2.751,1.869,6.07,2.962,9.646,2.962
		c3.455,0,6.665-1.029,9.36-2.783l22.467,34.784c-2.557,3-4.106,6.882-4.106,11.131c0,9.492,7.695,17.188,17.188,17.188
		c9.493,0,17.187-7.695,17.187-17.188c0-3.524-1.063-6.799-2.885-9.528l63.426-65.697c2.751,1.869,6.07,2.962,9.647,2.962
		c9.492,0,17.185-7.696,17.185-17.188C386.068,152.12,378.375,144.425,368.883,144.425z M149.225,293.009
		c-7.079,0-12.817-5.737-12.817-12.817c0-7.076,5.738-12.814,12.817-12.814c7.079,0,12.816,5.738,12.816,12.814
		C162.042,287.271,156.304,293.009,149.225,293.009z M223.782,190.741c0-7.077,5.738-12.815,12.818-12.815
		c7.079,0,12.815,5.738,12.815,12.815c0,7.08-5.736,12.817-12.815,12.817C229.52,203.558,223.782,197.821,223.782,190.741z
		 M281.508,263.879c-7.079,0-12.816-5.738-12.816-12.817c0-3.528,1.426-6.723,3.734-9.041l4.319-2.789l-0.031-0.049
		c1.481-0.6,3.097-0.936,4.794-0.936c7.079,0,12.815,5.738,12.815,12.815C294.323,258.14,288.587,263.879,281.508,263.879z
		 M368.883,174.427c-7.079,0-12.817-5.738-12.817-12.817c0-7.077,5.738-12.815,12.817-12.815s12.814,5.738,12.814,12.815
		C381.698,168.69,375.962,174.427,368.883,174.427z"/>
	<path fill="#020202" d="M96.814,102.661v236.484h324.478V102.661H96.814z M406.166,322.648h-294.23V116.413h294.23V322.648z"/>
	<rect x="87.188" y="354.271" fill="#020202" width="342.74" height="30.248"/>
	<polygon fill="#020202" points="379.744,489.699 346.746,489.699 256,398.954 288.998,398.954 	"/>
	<polygon fill="#020202" points="132.26,489.699 165.257,489.699 256,398.954 223.003,398.954 	"/>
	<g>
		<path fill="#020202" d="M51.827,75.163c0,9.112,7.387,16.499,16.499,16.499h5.112V58.664h-5.112
			C59.214,58.664,51.827,66.051,51.827,75.163z"/>
		<path fill="#020202" d="M443.675,58.664v32.997c9.112,0,16.499-7.386,16.499-16.499S452.787,58.664,443.675,58.664z"/>
		<path fill="#020202" d="M256.001,36.666c-12.149,0-21.998,9.849-21.998,21.999H87.188v32.997h342.74V58.664h-151.93
			C277.998,46.514,268.15,36.666,256.001,36.666z"/>
	</g>
</g>
</svg>
