<?xml version="1.0" encoding="UTF-8" standalone="no"?>
<!-- Created with Inkscape (http://www.inkscape.org/) -->

<svg
   xmlns:dc="http://purl.org/dc/elements/1.1/"
   xmlns:cc="http://creativecommons.org/ns#"
   xmlns:rdf="http://www.w3.org/1999/02/22-rdf-syntax-ns#"
   xmlns:svg="http://www.w3.org/2000/svg"
   xmlns="http://www.w3.org/2000/svg"
   xmlns:sodipodi="http://sodipodi.sourceforge.net/DTD/sodipodi-0.dtd"
   xmlns:inkscape="http://www.inkscape.org/namespaces/inkscape"
   width="210mm"
   height="297mm"
   viewBox="0 0 744.09448819 1052.3622047"
   id="svg2"
   version="1.1"
   inkscape:version="0.91 r13725"
   sodipodi:docname="app.svg">
  <defs
     id="defs4" />
  <sodipodi:namedview
     id="base"
     pagecolor="#ffffff"
     bordercolor="#666666"
     borderopacity="1.0"
     inkscape:pageopacity="0.0"
     inkscape:pageshadow="2"
     inkscape:zoom="10.475481"
     inkscape:cx="145.47506"
     inkscape:cy="330.27443"
     inkscape:document-units="px"
     inkscape:current-layer="layer1"
     showgrid="false"
     inkscape:window-width="1440"
     inkscape:window-height="855"
     inkscape:window-x="1920"
     inkscape:window-y="180"
     inkscape:window-maximized="1" />
  <metadata
     id="metadata7">
    <rdf:RDF>
      <cc:Work
         rdf:about="">
        <dc:format>image/svg+xml</dc:format>
        <dc:type
           rdf:resource="http://purl.org/dc/dcmitype/StillImage" />
        <dc:title></dc:title>
      </cc:Work>
    </rdf:RDF>
  </metadata>
  <g
     inkscape:label="Ebene 1"
     inkscape:groupmode="layer"
     id="layer1"
     transform="matrix(0.0625,0,0,0.0625,134.99999,712.30384)">
    <path
       id="path3384"
       d="m 655.99999,503.79076 c 0,141.375 -114.625,256 -256,256 -141.375,0 -256,-114.625 -256,-256 l 64,0 c 0,105.875 86.125,192 192,192 105.875,0 192,-86.125 192,-192 0,-105.875 -86.125,-192 -192,-192 l 0,-64 c 141.375,0 256,114.625 256,256 z m -256,-160 c -88.375,0 -160,71.625 -160,160 0,88.375 71.625,160 160,160 88.344,0 160,-71.625 160,-160 l -160,0 0,-160 z"
       inkscape:connector-curvature="0"
       style="fill:#ffffff" />
  </g>
</svg>
